<mxfile host="app.diagrams.net" agent="Mozilla/5.0 (Macintosh; Intel Mac OS X 10_15_7) AppleWebKit/537.36 (KHTML, like Gecko) Chrome/131.0.0.0 Safari/537.36" version="25.0.1">
  <diagram name="Page-1" id="YSRk-1OZii0uS_R1cROY">
    <mxGraphModel dx="1194" dy="639" grid="1" gridSize="10" guides="1" tooltips="1" connect="1" arrows="1" fold="1" page="1" pageScale="1" pageWidth="850" pageHeight="1100" math="0" shadow="0">
      <root>
        <mxCell id="0" />
        <mxCell id="1" parent="0" />
        <mxCell id="5P5TqWamcZ_24ubQnv2C-6" style="edgeStyle=orthogonalEdgeStyle;rounded=0;orthogonalLoop=1;jettySize=auto;html=1;exitX=1;exitY=0.5;exitDx=0;exitDy=0;entryX=0;entryY=0.5;entryDx=0;entryDy=0;labelBackgroundColor=none;strokeColor=#736CA8;fontColor=default;" edge="1" parent="1" source="5P5TqWamcZ_24ubQnv2C-1" target="5P5TqWamcZ_24ubQnv2C-2">
          <mxGeometry relative="1" as="geometry" />
        </mxCell>
        <mxCell id="5P5TqWamcZ_24ubQnv2C-1" value="&lt;pre&gt;&lt;font face=&quot;Times New Roman&quot;&gt;Data Ingestion&lt;/font&gt;&lt;/pre&gt;" style="rounded=0;whiteSpace=wrap;html=1;labelBackgroundColor=none;fillColor=#5D7F99;strokeColor=#D0CEE2;fontColor=#1A1A1A;" vertex="1" parent="1">
          <mxGeometry x="70" y="130" width="120" height="60" as="geometry" />
        </mxCell>
        <mxCell id="5P5TqWamcZ_24ubQnv2C-7" style="edgeStyle=orthogonalEdgeStyle;rounded=0;orthogonalLoop=1;jettySize=auto;html=1;exitX=1;exitY=0.5;exitDx=0;exitDy=0;entryX=0;entryY=0.5;entryDx=0;entryDy=0;labelBackgroundColor=none;strokeColor=#736CA8;fontColor=default;" edge="1" parent="1" source="5P5TqWamcZ_24ubQnv2C-2" target="5P5TqWamcZ_24ubQnv2C-3">
          <mxGeometry relative="1" as="geometry" />
        </mxCell>
        <mxCell id="5P5TqWamcZ_24ubQnv2C-9" style="edgeStyle=orthogonalEdgeStyle;rounded=0;orthogonalLoop=1;jettySize=auto;html=1;exitX=0.5;exitY=1;exitDx=0;exitDy=0;entryX=0;entryY=0.5;entryDx=0;entryDy=0;labelBackgroundColor=none;strokeColor=#736CA8;fontColor=default;" edge="1" parent="1" source="5P5TqWamcZ_24ubQnv2C-2" target="5P5TqWamcZ_24ubQnv2C-5">
          <mxGeometry relative="1" as="geometry" />
        </mxCell>
        <mxCell id="5P5TqWamcZ_24ubQnv2C-2" value="&lt;pre&gt;&lt;font face=&quot;Times New Roman&quot;&gt;Data Processing&lt;/font&gt;&lt;/pre&gt;" style="rounded=0;whiteSpace=wrap;html=1;labelBackgroundColor=none;fillColor=#5D7F99;strokeColor=#D0CEE2;fontColor=#1A1A1A;" vertex="1" parent="1">
          <mxGeometry x="260" y="130" width="120" height="60" as="geometry" />
        </mxCell>
        <mxCell id="5P5TqWamcZ_24ubQnv2C-8" style="edgeStyle=orthogonalEdgeStyle;rounded=0;orthogonalLoop=1;jettySize=auto;html=1;exitX=1;exitY=0.5;exitDx=0;exitDy=0;entryX=0;entryY=0.5;entryDx=0;entryDy=0;labelBackgroundColor=none;strokeColor=#736CA8;fontColor=default;" edge="1" parent="1" source="5P5TqWamcZ_24ubQnv2C-3" target="5P5TqWamcZ_24ubQnv2C-4">
          <mxGeometry relative="1" as="geometry" />
        </mxCell>
        <mxCell id="5P5TqWamcZ_24ubQnv2C-3" value="NLP Analysis" style="rounded=0;whiteSpace=wrap;html=1;labelBackgroundColor=none;fillColor=#5D7F99;strokeColor=#D0CEE2;fontColor=#1A1A1A;" vertex="1" parent="1">
          <mxGeometry x="450" y="130" width="120" height="60" as="geometry" />
        </mxCell>
        <mxCell id="5P5TqWamcZ_24ubQnv2C-11" style="edgeStyle=orthogonalEdgeStyle;rounded=0;orthogonalLoop=1;jettySize=auto;html=1;exitX=0.5;exitY=1;exitDx=0;exitDy=0;entryX=1;entryY=0.5;entryDx=0;entryDy=0;labelBackgroundColor=none;strokeColor=#736CA8;fontColor=default;" edge="1" parent="1" source="5P5TqWamcZ_24ubQnv2C-4" target="5P5TqWamcZ_24ubQnv2C-5">
          <mxGeometry relative="1" as="geometry" />
        </mxCell>
        <mxCell id="5P5TqWamcZ_24ubQnv2C-4" value="Multimodal Integration" style="rounded=0;whiteSpace=wrap;html=1;labelBackgroundColor=none;fillColor=#5D7F99;strokeColor=#D0CEE2;fontColor=#1A1A1A;" vertex="1" parent="1">
          <mxGeometry x="630" y="130" width="120" height="60" as="geometry" />
        </mxCell>
        <mxCell id="5P5TqWamcZ_24ubQnv2C-5" value="Real-Time Recommendations" style="rounded=0;whiteSpace=wrap;html=1;labelBackgroundColor=none;fillColor=#5D7F99;strokeColor=#D0CEE2;fontColor=#1A1A1A;" vertex="1" parent="1">
          <mxGeometry x="365" y="270" width="120" height="60" as="geometry" />
        </mxCell>
      </root>
    </mxGraphModel>
  </diagram>
</mxfile>
